<?xml version="1.0" standalone="no"?>
<!DOCTYPE svg PUBLIC "-//W3C//DTD SVG 20010904//EN"
 "http://www.w3.org/TR/2001/REC-SVG-20010904/DTD/svg10.dtd">
<svg version="1.0" xmlns="http://www.w3.org/2000/svg"
 width="87.000000pt" height="87.000000pt" viewBox="0 0 87.000000 87.000000"
 preserveAspectRatio="xMidYMid meet">
<metadata>
Created by potrace 1.11, written by Peter Selinger 2001-2013
</metadata>
<g transform="translate(0.000000,87.000000) scale(0.100000,-0.100000)"
fill="#000000" stroke="none">
<path d="M325 851 c5 -9 -7 -13 -31 -10 -4 0 -11 -5 -15 -13 -7 -11 -9 -10 -9
1 0 10 -8 7 -27 -10 -14 -13 -23 -17 -19 -9 4 8 -2 4 -14 -10 -12 -14 -19 -18
-15 -10 4 8 -3 4 -14 -9 -12 -13 -21 -19 -21 -15 0 5 -5 1 -11 -9 -6 -9 -14
-15 -19 -12 -5 3 -12 0 -16 -6 -4 -8 -3 -9 4 -5 7 4 12 3 12 -3 0 -5 -9 -13
-21 -16 -11 -4 -18 -9 -15 -12 3 -4 -2 -12 -12 -19 -9 -7 -18 -17 -18 -23 -1
-6 -2 -16 -3 -22 0 -5 -7 -7 -14 -3 -8 5 -7 2 2 -9 12 -15 12 -17 -3 -11 -14
5 -16 2 -12 -20 2 -14 0 -29 -6 -32 -7 -4 -8 -2 -4 4 5 8 2 10 -9 6 -14 -6
-14 -8 1 -19 14 -9 14 -14 4 -20 -9 -6 -11 -4 -5 5 5 8 4 11 -2 7 -5 -3 -10
-54 -11 -112 -1 -80 2 -104 11 -98 7 4 7 0 -2 -10 -11 -14 -11 -18 4 -23 10
-4 15 -14 12 -25 -4 -13 0 -19 11 -19 15 0 15 -2 2 -10 -8 -5 -10 -10 -4 -10
7 0 15 -12 19 -27 7 -29 48 -73 68 -73 7 0 6 -4 -3 -10 -13 -9 -13 -10 0 -11
8 -1 19 -1 23 0 5 1 6 -3 2 -9 -3 -5 -1 -10 5 -10 6 0 8 -5 4 -12 -5 -8 0 -9
14 -6 15 4 22 2 22 -8 0 -8 12 -19 27 -25 15 -6 31 -16 35 -22 5 -9 8 -8 8 3
0 12 2 12 9 2 12 -19 231 -28 231 -10 0 9 3 9 9 -1 8 -13 12 -13 27 0 10 8 15
9 11 2 -5 -7 0 -9 13 -6 11 3 17 10 13 17 -3 6 0 5 8 -2 11 -10 17 -8 32 10
10 13 15 16 11 8 -6 -12 -5 -13 8 -3 8 7 19 9 23 5 5 -4 5 -1 1 6 -4 6 -2 12
4 12 6 0 8 4 5 10 -3 5 0 7 8 4 8 -3 18 0 22 5 3 6 11 8 17 5 7 -4 8 -2 4 5
-6 9 -12 9 -24 -1 -15 -12 -16 -11 -4 4 8 9 19 15 27 12 13 -5 29 11 30 31 1
6 7 9 14 7 7 -1 10 2 6 8 -3 5 -2 10 4 10 6 0 8 7 4 16 -4 10 2 17 17 21 16 4
18 8 8 14 -11 7 -11 9 1 9 8 0 11 6 7 16 -4 10 -2 13 6 8 8 -5 9 2 4 22 -5 21
-4 25 3 14 9 -13 12 -13 23 -1 8 9 9 12 1 7 -8 -4 -11 1 -10 14 1 11 6 20 11
20 5 0 6 3 3 6 -3 4 -2 14 3 24 6 12 4 24 -7 40 -9 13 -11 20 -4 16 9 -6 11 0
8 21 -2 15 0 33 5 40 6 7 5 14 -3 19 -8 5 -9 3 -4 -6 5 -9 4 -11 -4 -6 -9 6
-9 11 -1 21 7 8 7 15 1 19 -5 3 -7 15 -4 26 4 17 2 19 -13 13 -17 -6 -17 -5
-5 10 13 16 8 22 -13 18 -5 -1 -4 5 4 13 9 12 9 16 1 16 -7 0 -9 5 -6 10 3 6
-2 10 -11 10 -10 0 -14 3 -11 6 10 10 -13 45 -24 39 -5 -4 -9 -3 -8 2 3 19 -2
46 -8 40 -3 -4 -12 1 -20 11 -9 10 -11 11 -7 2 7 -13 5 -13 -9 -1 -9 7 -17 20
-17 28 0 9 -6 13 -15 10 -8 -4 -17 -1 -21 5 -5 7 -2 8 7 4 8 -4 3 2 -11 13
-14 11 -33 21 -43 21 -12 0 -16 4 -11 13 5 8 2 8 -9 -2 -12 -9 -17 -10 -17 -2
0 7 -5 9 -12 5 -7 -5 -9 -2 -6 8 5 12 -12 15 -114 17 -83 2 -118 -1 -113 -8z
m-240 -661 c3 -5 1 -10 -4 -10 -6 0 -11 5 -11 10 0 6 2 10 4 10 3 0 8 -4 11
-10z"/>
<path d="M855 451 c-3 -5 -2 -12 3 -15 5 -3 9 1 9 9 0 17 -3 19 -12 6z"/>
</g>
</svg>
