<?xml version="1.0" encoding="utf-8"?>
<!-- Generator: Adobe Illustrator 22.0.1, SVG Export Plug-In . SVG Version: 6.00 Build 0)  -->
<svg version="1.1" id="Capa_1" xmlns="http://www.w3.org/2000/svg" xmlns:xlink="http://www.w3.org/1999/xlink" x="0px" y="0px"
	 viewBox="0 0 358.4 512" style="enable-background:new 0 0 358.4 512;" xml:space="preserve">
<style type="text/css">
	.st0{fill:#3F2B2D;}
	.st1{fill:#FFFFFF;}
	.st2{fill:#FF5440;}
	.st3{fill:#3E2B2F;}
</style>
<g>
	<g id="place">
		<path class="st0" d="M179.2,0C79.4,0,0,79.4,0,179.2C0,312.3,179.2,512,179.2,512s179.2-199.7,179.2-332.8
			C358.4,79.4,279,0,179.2,0z"/>
	</g>
</g>
<g>
	<polygon class="st1" points="111,127.9 134.7,288.5 224,288.5 247.7,127.9 	"/>
	<path class="st2" d="M146.5,176.9l-25.2,22.7l3.9,26.3l21.3-19.3l32.7,29.9l32.7-29.6l21.3,19.3l3.9-26.3l-25.2-22.7l-32.7,29.6
		L146.5,176.9z M128.3,245.7l6.4,42.8H224l6.4-42.8l-18.2-16.5l-33,29.6l-32.7-29.9L128.3,245.7z M239.9,179.9l7.8-52H111l7.8,52
		l28-25.5l32.4,29.9l32.7-29.6L239.9,179.9z"/>
	<polygon class="st3" points="247.7,92.1 247.7,74.5 111,74.5 111,92.1 93.1,92.1 93.1,115.9 265.6,115.9 265.6,92.1 	"/>
	<path class="st1" d="M179.2,322.3c78.9,0,142.6-63.8,142.6-142.6S258.1,37,179.2,37S36.6,100.8,36.6,179.6S100.3,322.3,179.2,322.3
		"/>
	<polygon class="st1" points="111,130.1 134.7,290.7 224,290.7 247.7,130.1 	"/>
	<path class="st2" d="M146.5,179.1l-25.2,22.7l3.9,26.3l21.3-19.3l32.7,29.9l32.7-29.6l21.3,19.3l3.9-26.3l-25.2-22.7L179.2,209
		L146.5,179.1z M128.3,247.9l6.4,42.8H224l6.4-42.8l-18.2-16.5l-33,29.6l-32.7-29.9L128.3,247.9z M239.9,182.4l7.8-52.3H111
		l7.6,52.3l28-25.5l32.7,29.6l32.7-29.6L239.9,182.4z"/>
	<polygon class="st3" points="247.7,94.6 247.7,76.7 111,76.7 111,94.6 93.1,94.6 93.1,118.4 265.6,118.4 265.6,94.6 	"/>
</g>
</svg>
